<?xml version="1.0" encoding="UTF-8" standalone="no"?>
<!-- Created with Inkscape (http://www.inkscape.org/) -->

<svg
   xmlns:dc="http://purl.org/dc/elements/1.1/"
   xmlns:cc="http://creativecommons.org/ns#"
   xmlns:rdf="http://www.w3.org/1999/02/22-rdf-syntax-ns#"
   xmlns:svg="http://www.w3.org/2000/svg"
   xmlns="http://www.w3.org/2000/svg"
   xmlns:sodipodi="http://sodipodi.sourceforge.net/DTD/sodipodi-0.dtd"
   xmlns:inkscape="http://www.inkscape.org/namespaces/inkscape"
   sodipodi:docname="hack-pack-icon.svg"
   inkscape:version="0.92.4 (5da689c313, 2019-01-14)"
   id="svg8"
   version="1.1"
   viewBox="0 0 124.17777 174.97777"
   height="174.97777mm"
   width="124.17777mm">
  <defs
     id="defs2" />
  <sodipodi:namedview
     id="base"
     pagecolor="#ffffff"
     bordercolor="#666666"
     borderopacity="1.0"
     inkscape:pageopacity="0.0"
     inkscape:pageshadow="2"
     inkscape:zoom="0.98994949"
     inkscape:cx="81.107738"
     inkscape:cy="107.27422"
     inkscape:document-units="mm"
     inkscape:current-layer="layer1"
     showgrid="false"
     fit-margin-top="0"
     fit-margin-left="0"
     fit-margin-right="0"
     fit-margin-bottom="0"
     inkscape:window-width="1920"
     inkscape:window-height="1016"
     inkscape:window-x="1680"
     inkscape:window-y="27"
     inkscape:window-maximized="1" />
  <metadata
     id="metadata5">
    <rdf:RDF>
      <cc:Work
         rdf:about="">
        <dc:format>image/svg+xml</dc:format>
        <dc:type
           rdf:resource="http://purl.org/dc/dcmitype/StillImage" />
        <dc:title />
      </cc:Work>
    </rdf:RDF>
  </metadata>
  <g
     inkscape:label="Layer 1"
     inkscape:groupmode="layer"
     id="layer1"
     transform="translate(-50.548017,-62.100398)">
    <g
       id="g829"
       transform="matrix(0.35277777,0,0,0.35277777,50.548017,62.100398)"
       style="fill:#f52f42;fill-opacity:1">
      <path
         id="path815"
         d="M 236.80859,188.22266 C 243.51172,183.96094 248,176.51953 248,168 c 0,-6.16797 -2.40625,-11.74219 -6.23828,-16 3.83984,-4.25781 6.23828,-9.83203 6.23828,-16 0,-10.33594 -6.60156,-19.07812 -15.77734,-22.45703 1.12109,-27.640626 9.29687,-54.488282 23.99218,-78.007814 l 14.5625,-23.296875 c 1.54297,-2.46875 1.6211,-5.574219 0.21485,-8.117187 C 269.58594,1.574219 266.90234,0 264,0 H 220.83984 C 204.24609,0 188.67969,6.679688 177.19922,18.152344 166.67187,6.71875 151.66406,0 136,0 H 88 C 84.769531,0 81.839844,1.953125 80.609375,4.9375 79.367188,7.929688 80.054688,11.367188 82.34375,13.65625 106.625,37.945312 120,70.230469 120,104.56641 v 8.90625 c -9.28906,3.3125 -16,12.11328 -16,22.52734 0,6.16797 2.40625,11.74219 6.23828,16 -3.83984,4.25781 -6.23828,9.83203 -6.23828,16 0,8.51953 4.48828,15.96094 11.19141,20.22266 C 50.015625,214.71875 0,280.88672 0,352 0,435.44141 74.015625,496 176,496 277.98437,496 352,435.44141 352,352 352,280.88672 301.98437,214.71875 236.80859,188.22266 Z M 105.71875,16 H 136 c 12.51953,0 24.48828,5.984375 32,16 5.16016,6.871094 8,15.398438 8,24 v 16 h 16 V 56 C 192,47.574219 189.95312,39.257812 186.30469,31.6875 194.96094,21.785156 207.48047,16 220.83984,16 h 28.71875 l -6.90234,11.054688 C 226.64062,52.6875 217.64844,81.902344 216.28125,112 H 136 v -7.43359 C 136,72.089844 125.35938,41.230469 105.71875,16 Z M 128,128 h 96 c 4.41406,0 8,3.59375 8,8 0,4.40625 -3.58594,8 -8,8 h -96 c -4.41406,0 -8,-3.59375 -8,-8 0,-4.40625 3.58594,-8 8,-8 z m 0,48 c -4.41406,0 -8,-3.59375 -8,-8 0,-4.40625 3.58594,-8 8,-8 h 96 c 4.41406,0 8,3.59375 8,8 0,4.40625 -3.58594,8 -8,8 z m 48,304 C 81.800781,480 16,427.35937 16,352 16,276.47266 84.425781,192 176,192 c 4.44141,0 8.80078,0.25781 13.12109,0.64062 C 165.09766,221.6875 152,257.83203 152,296 h 16 c 0,-37.67188 14.24609,-73.08984 40,-100.38281 25.74219,27.28515 40,62.70312 40,100.38281 h 16 c 0,-33.03906 -9.84766,-64.53516 -28.05469,-91.24609 C 295.85547,231.13672 336,294.16797 336,352 c 0,75.35937 -65.80078,128 -160,128 z m 0,0"
         inkscape:connector-curvature="0"
         style="fill:#f52f42;fill-opacity:1" />
      <path
         id="path817"
         d="m 304,352 c 0,66.32031 -64.28906,96 -128,96 v 16 c 86.13672,0 144,-45.00781 144,-112 z m 0,0"
         inkscape:connector-curvature="0"
         style="fill:#f52f42;fill-opacity:1" />
    </g>
    <g
       id="g1409"
       transform="matrix(0.72880003,0,0,0.72880003,127.35395,57.637825)">
      <path
         style="fill:none;stroke:#e42d40;stroke-width:3;stroke-linejoin:round;stroke-miterlimit:4;stroke-dasharray:none;stroke-opacity:1"
         d="m -71.916269,167.53055 h 28.726188 c 3.769179,0 6.803572,3.03439 6.803572,6.80357 v 28.72619 c 0,3.76918 -3.034393,6.80357 -6.803572,6.80357 h -28.726188 c -3.769179,0 -6.803572,-3.03439 -6.803572,-6.80357 v -28.72619 c 0,-3.76918 3.034393,-6.80357 6.803572,-6.80357 z"
         id="rect5418"
         inkscape:connector-curvature="0" />
      <g
         style="fill:none;stroke:#e42d40;stroke-width:11.33858299;stroke-linejoin:round;stroke-miterlimit:4;stroke-dasharray:none;stroke-opacity:1"
         transform="matrix(0.26458333,0,0,0.26458333,-78.706624,-58.000291)"
         id="text5436">
        <path
           d="m 71.5,879.7 -23,3.9 v 101.5 h 23 v -38.4 c 0,-11.3 6,-18.3 11,-18.3 4.5,0 5.8,4.5 5.8,11.3 v 45.4 h 23.1 v -48.7 c 0,-15.4 -5.8,-25.3 -20.9,-25.3 -7.1,0 -14,2 -19,6.5 z"
           class="st1"
           id="path3866"
           inkscape:connector-curvature="0"
           style="fill:none;stroke:#e42d40;stroke-width:11.33858299;stroke-linejoin:round;stroke-miterlimit:4;stroke-dasharray:none;stroke-opacity:1" />
      </g>
    </g>
  </g>
</svg>
