<?xml version="1.0" encoding="UTF-8" standalone="no"?>
<!-- Created with Inkscape (http://www.inkscape.org/) -->

<svg
   xmlns:dc="http://purl.org/dc/elements/1.1/"
   xmlns:cc="http://creativecommons.org/ns#"
   xmlns:rdf="http://www.w3.org/1999/02/22-rdf-syntax-ns#"
   xmlns:svg="http://www.w3.org/2000/svg"
   xmlns="http://www.w3.org/2000/svg"
   xmlns:sodipodi="http://sodipodi.sourceforge.net/DTD/sodipodi-0.dtd"
   xmlns:inkscape="http://www.inkscape.org/namespaces/inkscape"
   width="60.39175mm"
   height="60.532616mm"
   viewBox="0 0 60.39175 60.532616"
   version="1.1"
   id="svg8"
   inkscape:version="0.92.4 (5da689c313, 2019-01-14)"
   sodipodi:docname="icon.svg">
  <defs
     id="defs2">
    <inkscape:perspective
       id="perspective831"
       inkscape:persp3d-origin="105 : 98.999995 : 1"
       inkscape:vp_z="210 : 148.49999 : 1"
       inkscape:vp_y="0 : 999.99994 : 0"
       inkscape:vp_x="0 : 148.49999 : 1"
       sodipodi:type="inkscape:persp3d" />
    <radialGradient
       gradientUnits="userSpaceOnUse"
       gradientTransform="matrix(-0.27106562,0,0,0.30905979,-322.28088,-593.83397)"
       r="354.33069"
       cy="1316.6276"
       cx="365.9566"
       id="rect5418_1_">
      <stop
         id="stop835"
         style="stop-color:#E42D40"
         offset="0" />
      <stop
         id="stop837"
         style="stop-color:#E42D40"
         offset="1" />
    </radialGradient>
  </defs>
  <sodipodi:namedview
     id="base"
     pagecolor="#ffffff"
     bordercolor="#666666"
     borderopacity="1.0"
     inkscape:pageopacity="0.0"
     inkscape:pageshadow="2"
     inkscape:zoom="1.979899"
     inkscape:cx="138.82845"
     inkscape:cy="92.74473"
     inkscape:document-units="mm"
     inkscape:current-layer="layer1"
     showgrid="false"
     fit-margin-top="0"
     fit-margin-left="0"
     fit-margin-right="0"
     fit-margin-bottom="0"
     inkscape:window-width="1920"
     inkscape:window-height="1016"
     inkscape:window-x="1680"
     inkscape:window-y="27"
     inkscape:window-maximized="1" />
  <metadata
     id="metadata5">
    <rdf:RDF>
      <cc:Work
         rdf:about="">
        <dc:format>image/svg+xml</dc:format>
        <dc:type
           rdf:resource="http://purl.org/dc/dcmitype/StillImage" />
        <dc:title></dc:title>
      </cc:Work>
    </rdf:RDF>
  </metadata>
  <g
     inkscape:label="Layer 1"
     inkscape:groupmode="layer"
     id="layer1"
     transform="translate(61.015717,-389.95393)">
    <g
       id="g1487"
       inkscape:export-xdpi="300"
       inkscape:export-ydpi="300">
      <g
         transform="matrix(2.4965092,0,0,2.4965092,964.55195,60.89864)"
         id="g1015">
        <g
           id="g896">
          <path
             inkscape:connector-curvature="0"
             id="rect5418"
             d="m -407.06446,-140.47533 c 0,0 5.01806,-1.90334 5.01806,-1.90334 0.68774,-0.26085 1.24176,-1.16605 1.24176,-2.02941 0,0 0,-6.31794 0,-6.31794 0,-0.86337 -0.55402,-1.34563 -1.24176,-1.08146 0,0 -5.01806,1.92749 -5.01806,1.92749 -0.68374,0.26263 -1.23384,1.16633 -1.23384,2.0264 0,0 0,6.29378 0,6.29378 0,0.86007 0.5501,1.34382 1.23384,1.08448 0,0 0,0 0,0"
             style="fill:url(#rect5418_1_);stroke-width:0.26458332"
             transform="scale(1,-1)" />
          <g
             transform="matrix(0.26458333,0,0,-0.26458333,-469.89861,408.78143)"
             id="text5436">
            <path
               style="fill:#ffffff"
               inkscape:connector-curvature="0"
               id="path3866"
               class="st1"
               d="m 245.44988,1004.9772 c 0,0 -4.06744,0.6793 -4.06744,0.6793 0,0 0,-22.56092 0,-22.56092 0,0 4.06744,-1.559 4.06744,-1.559 0,0 0,8.54004 0,8.54004 0,2.51308 1.06181,3.66469 1.94689,3.32696 0.79675,-0.30402 1.02695,-1.39305 1.02695,-2.90596 0,0 0,-10.10088 0,-10.10088 0,0 4.09294,-1.56878 4.09294,-1.56878 0,0 0,10.84109 0,10.84109 0,3.42818 -1.02809,6.02378 -3.70333,7.04322 -1.25722,0.47908 -2.47863,0.49966 -3.36345,-0.1639 0,0 0,8.42883 0,8.42883" />
          </g>
        </g>
        <g
           data-name="Package"
           id="Package-2"
           transform="matrix(0.40317464,0,0,0.40317464,-411.74066,131.20036)">
          <path
             id="path4274"
             d="m 61.685456,12.567816 -29,-11.0000004 c -0.227984,-0.086991 -0.480016,-0.086991 -0.708,0 L 2.9774563,12.567816 c -0.3887163,0.147133 -0.645898,0.51937 -0.646,0.935 v 36 c -1.153e-4,0.414257 0.2551995,0.785696 0.642,0.934 l 28.9999997,11.14 c 0.229594,0.08761 0.483406,0.08761 0.713,0 l 29,-11.04 c 0.387981,-0.147329 0.64464,-0.518988 0.645,-0.934 v -36.1 c -1.02e-4,-0.41563 -0.257284,-0.787867 -0.646,-0.935 z m -29.354,-8.9960004 26.181,9.9310004 -26.181,9.931 -7.953,-3.017 c -25.8203751,-9.795055 1.50061,0.569181 -10.274,-3.897 l -7.9539997,-3.017 z m -17,15.5520004 5,1.9 z m 1.592,-1.535 c -12.2057012,-4.629476 23.326722,8.847546 4.635,1.758 z m -12.5919997,-2.637 c 0,0 5.9999447,2.276146 8.9999997,3.414 2.999945,1.137812 6.000055,2.275188 9,3.413 3.000055,1.137854 9,3.414 9,3.414 v 33.994 l -26.9999997,-10.371 z m 28.9999997,44.24 v -34 l 27,-10.24 v 33.962 z"
             inkscape:connector-curvature="0"
             sodipodi:nodetypes="ccccccccccccccccssccsssssscssccccccccc" />
          <path
             id="path4276"
             d="m 42.643,50.019 -6.014,2.289 a 1,1 0 0 0 0.355,1.935 0.988,0.988 0 0 0 0.356,-0.066 l 6.014,-2.289 a 1,1 0 1 0 -0.711,-1.869 z"
             inkscape:connector-curvature="0" />
          <path
             id="path4278"
             d="m 48.637,47.737 -2.013,0.766 a 1,1 0 0 0 0.355,1.935 0.988,0.988 0 0 0 0.356,-0.066 l 2.013,-0.766 a 1,1 0 1 0 -0.711,-1.869 z"
             inkscape:connector-curvature="0" />
          <path
             id="path4280"
             d="m 42.643,46.019 -6.014,2.289 a 1,1 0 0 0 0.355,1.935 0.988,0.988 0 0 0 0.356,-0.066 l 6.014,-2.289 a 1,1 0 1 0 -0.711,-1.869 z"
             inkscape:connector-curvature="0" />
          <path
             id="path4282"
             d="m 48.637,43.737 -2.013,0.766 a 1,1 0 0 0 0.355,1.935 0.988,0.988 0 0 0 0.356,-0.066 l 2.013,-0.766 a 1,1 0 1 0 -0.711,-1.869 z"
             inkscape:connector-curvature="0" />
          <path
             id="path4284"
             d="m 42.643,42.019 -6.014,2.289 a 1,1 0 0 0 0.355,1.935 0.988,0.988 0 0 0 0.356,-0.066 l 6.014,-2.289 a 1,1 0 1 0 -0.711,-1.869 z"
             inkscape:connector-curvature="0" />
          <path
             id="path4286"
             d="m 48.637,39.737 -2.013,0.766 a 1,1 0 0 0 0.355,1.935 0.988,0.988 0 0 0 0.356,-0.066 l 2.013,-0.766 a 1,1 0 1 0 -0.711,-1.869 z"
             inkscape:connector-curvature="0" />
        </g>
      </g>
      <path
         transform="matrix(0.26458333,0,0,0.26458333,-61.015717,389.95393)"
         inkscape:connector-curvature="0"
         id="path1446"
         d="m 118.32235,154.6303 c 0,-60.809103 0.0486,-64.362427 0.88388,-64.693396 3.81158,-1.510184 99.57294,-37.815494 100.25958,-38.010683 0.84153,-0.239222 0.8794,2.963901 0.75761,64.069959 l -0.1282,64.32177 -50.76017,19.32671 c -27.91809,10.62969 -50.81698,19.32718 -50.88643,19.32777 -0.0695,5.8e-4 -0.12627,-28.95338 -0.12627,-64.34213 z m 26.59144,41.58848 c 7.1987,-2.732 12.40261,-4.99043 12.93078,-5.61179 1.926,-2.26583 0.10754,-6.48377 -2.79531,-6.48377 -1.99102,0 -25.26962,9.03053 -26.24658,10.1819 -1.35787,1.60029 -1.14536,4.18631 0.44692,5.43881 0.73195,0.57574 1.84527,1.04681 2.47405,1.04681 0.62878,0 6.56435,-2.05738 13.19014,-4.57196 z m 30.56529,-11.64612 c 2.31552,-0.86398 4.60778,-2.02558 5.09392,-2.58134 2.0223,-2.31192 0.25349,-6.4544 -2.75598,-6.4544 -2.20774,0 -9.60137,2.96854 -10.88108,4.36875 -1.41639,1.54975 -1.4462,3.18243 -0.0896,4.90705 1.40598,1.78741 3.34336,1.73354 8.63275,-0.24006 z m -31.43847,-3.26943 c 12.80589,-4.88477 13.93348,-5.39832 14.3741,-6.54655 1.0092,-2.62993 -0.76671,-5.78575 -3.25588,-5.78575 -2.23021,0 -25.30476,8.89507 -26.35615,10.1601 -1.89572,2.28093 -0.11991,6.50742 2.73417,6.50742 0.62622,0 6.25292,-1.95085 12.50376,-4.33522 z m 31.6472,-12.07807 c 2.47851,-0.97135 4.79049,-2.15121 5.13773,-2.62192 0.9705,-1.31558 0.771,-4.05865 -0.37881,-5.20845 -1.41283,-1.41284 -3.6169,-1.27564 -8.34528,0.51947 -5.94483,2.25694 -7.62493,4.73345 -5.25512,7.74617 1.43332,1.82217 3.31809,1.72938 8.84148,-0.43527 z m -30.98653,-3.40134 c 6.7321,-2.5643 12.64226,-5.06442 13.13368,-5.55584 2.15302,-2.15303 0.24953,-6.45027 -2.85635,-6.44841 -1.87825,0.001 -24.75117,8.67294 -26.1032,9.89651 -2.11153,1.91091 -0.27823,6.77008 2.55427,6.77008 0.56728,0 6.5395,-2.09806 13.2716,-4.66234 z m 30.81625,-11.74447 c 2.57216,-0.96778 4.96077,-2.14765 5.30801,-2.62192 1.54431,-2.10928 0.0907,-6.12771 -2.27284,-6.28324 -2.57677,-0.16956 -10.23276,2.59405 -11.77642,4.25097 -1.35402,1.45336 -1.24137,3.66971 0.26297,5.17405 1.64678,1.64678 2.92869,1.56817 8.47828,-0.51986 z"
         style="opacity:1;fill:#ffffff;fill-opacity:1;stroke:none;stroke-width:1.01015258;stroke-linecap:round;stroke-linejoin:round;stroke-miterlimit:4;stroke-dasharray:none;stroke-dashoffset:0;stroke-opacity:1" />
      <path
         transform="matrix(0.26458333,0,0,0.26458333,-61.015717,389.95393)"
         inkscape:connector-curvature="0"
         id="path1448"
         d="M 65.289341,64.675045 C 38.76021,54.581268 16.750444,46.131512 16.37875,45.897809 15.442491,45.309136 113.44109,8.1511052 114.91402,8.536287 c 3.09157,0.8084627 97.73369,36.990653 97.44297,37.252968 -0.45809,0.413326 -97.94739,37.330008 -98.44455,37.27841 -0.21357,-0.02217 -22.093968,-8.298848 -48.623099,-18.39262 z"
         style="opacity:1;fill:#ffffff;fill-opacity:1;stroke:none;stroke-width:1.01015258;stroke-linecap:round;stroke-linejoin:round;stroke-miterlimit:4;stroke-dasharray:none;stroke-dashoffset:0;stroke-opacity:1" />
      <path
         transform="matrix(0.26458333,0,0,0.26458333,-61.015717,389.95393)"
         inkscape:connector-curvature="0"
         id="path1450"
         d="M 58.607667,199.37086 7.7318152,179.83007 7.7212305,115.75275 C 7.7111904,54.972379 7.7561241,51.687319 8.5945293,51.906667 9.0806652,52.033853 32.150024,60.733888 59.859771,71.240078 l 50.381359,19.102163 v 64.315619 c 0,35.3736 -0.17046,64.30171 -0.37881,64.2847 -0.20834,-0.017 -23.272938,-8.82428 -51.254653,-19.5717 z m 30.930926,-10.82822 c 1.692677,-0.85877 2.551777,-1.75017 3.516286,-3.64848 l 1.276348,-2.51206 v -34.10597 -34.10597 l -1.145064,-2.8303 c -1.598541,-3.95117 -4.507599,-7.9282 -7.188695,-9.8278 -3.206254,-2.271687 -51.250219,-20.4244 -54.056333,-20.4244 -3.779405,0 -6.87162,2.630405 -8.015632,6.818529 -0.371745,1.360925 -0.552778,12.412121 -0.554676,33.860261 -0.003,34.07513 0.03905,34.72329 2.581061,39.77001 1.489771,2.95768 4.264428,6.26655 6.442272,7.68263 1.503304,0.97747 36.907067,14.87321 49.057622,19.25479 4.10581,1.48059 5.284284,1.4906 8.086811,0.0688 z"
         style="opacity:1;fill:#ffffff;fill-opacity:1;stroke:none;stroke-width:1.01015258;stroke-linecap:round;stroke-linejoin:round;stroke-miterlimit:4;stroke-dasharray:none;stroke-dashoffset:0;stroke-opacity:1" />
    </g>
  </g>
  <style
     type="text/css"
     id="style832">
	.st0{fill:url(#rect5418_1_);}
	.st1{fill:#FFFFFF;}
</style>
</svg>
