<?xml version="1.0" encoding="UTF-8" standalone="no"?>
<!-- Created with Inkscape (http://www.inkscape.org/) -->

<svg
   xmlns:dc="http://purl.org/dc/elements/1.1/"
   xmlns:cc="http://creativecommons.org/ns#"
   xmlns:rdf="http://www.w3.org/1999/02/22-rdf-syntax-ns#"
   xmlns:svg="http://www.w3.org/2000/svg"
   xmlns="http://www.w3.org/2000/svg"
   xmlns:sodipodi="http://sodipodi.sourceforge.net/DTD/sodipodi-0.dtd"
   xmlns:inkscape="http://www.inkscape.org/namespaces/inkscape"
   width="58.208073mm"
   height="60.493744mm"
   viewBox="0 0 58.208073 60.493744"
   version="1.1"
   id="svg8"
   inkscape:version="0.92.4 (5da689c313, 2019-01-14)"
   sodipodi:docname="notion-logo.svg">
  <defs
     id="defs2" />
  <sodipodi:namedview
     id="base"
     pagecolor="#ffffff"
     bordercolor="#666666"
     borderopacity="1.0"
     inkscape:pageopacity="0.0"
     inkscape:pageshadow="2"
     inkscape:zoom="1.4"
     inkscape:cx="-9.9512945"
     inkscape:cy="152.24765"
     inkscape:document-units="mm"
     inkscape:current-layer="layer1"
     showgrid="true"
     inkscape:window-width="1920"
     inkscape:window-height="1016"
     inkscape:window-x="1680"
     inkscape:window-y="27"
     inkscape:window-maximized="1" />
  <metadata
     id="metadata5">
    <rdf:RDF>
      <cc:Work
         rdf:about="">
        <dc:format>image/svg+xml</dc:format>
        <dc:type
           rdf:resource="http://purl.org/dc/dcmitype/StillImage" />
        <dc:title></dc:title>
      </cc:Work>
    </rdf:RDF>
  </metadata>
  <g
     inkscape:label="Layer 1"
     inkscape:groupmode="layer"
     id="layer1"
     transform="translate(190.49903,-105.54554)">
    <path
       style="fill:#f52f42;fill-opacity:1;stroke:none;stroke-width:0.26458332;stroke-opacity:1"
       d="m -179.10471,165.53252 c -1.03941,-0.63365 -0.69194,-0.22147 -6.2065,-7.36233 -2.31215,-2.99404 -4.42551,-5.95959 -4.69635,-6.59012 -0.46569,-1.08414 -0.49239,-2.22665 -0.49145,-21.03437 9.6e-4,-19.25848 0.0173,-19.91477 0.51747,-20.73501 1.00682,-1.65125 0.74711,-1.6113 19.56188,-3.00955 18.83853,-1.40002 21.26915,-1.49985 22.63376,-0.92968 0.98954,0.41345 13.53413,9.13971 14.73543,10.25024 l 0.7588,0.70147 v 21.99505 c 0,24.59634 0.0926,23.36722 -1.83408,24.35012 -0.99136,0.50576 -2.68707,0.64871 -20.58449,1.73538 -22.72221,1.37961 -23.14501,1.39051 -24.39447,0.6288 z m 22.90122,-5.26541 c 10.00783,-0.58208 18.29148,-1.05833 18.40811,-1.05833 0.11662,0 0.45017,-0.23813 0.74121,-0.52917 0.51934,-0.51934 0.52917,-0.88194 0.52917,-19.52625 0,-14.42273 -0.0765,-19.07353 -0.3175,-19.31458 -0.46657,-0.46657 -1.83108,-0.41971 -21.53525,0.73961 -9.88187,0.58142 -18.1754,1.05767 -18.43006,1.05834 -0.25466,6.7e-4 -0.70115,0.23934 -0.99219,0.53038 -0.51919,0.51919 -0.52917,0.88195 -0.52917,19.23139 v 18.70222 l 0.57529,0.61236 c 0.45971,0.48933 0.85446,0.61236 1.96481,0.61236 0.76424,0 9.57775,-0.47625 19.58558,-1.05833 z m -16.04026,-4.61012 c 0,-0.69338 1.17091,-1.68739 2.2194,-1.88408 l 0.9556,-0.17927 V 141.99462 130.3956 l -1.52135,-0.0794 c -1.51727,-0.0791 -1.52114,-0.0815 -1.4397,-0.8731 0.0449,-0.43656 0.35914,-1.07549 0.69827,-1.41985 0.57252,-0.58134 0.95448,-0.65045 5.34229,-0.96659 2.59914,-0.18726 4.79778,-0.2627 4.88589,-0.16764 0.0881,0.0951 2.79677,4.20659 6.01927,9.13674 l 5.85908,8.9639 v -7.95858 -7.95858 l -1.5875,-0.1796 c -1.38869,-0.15711 -1.58645,-0.24988 -1.57909,-0.74074 0.01,-0.66612 0.45235,-1.29478 1.18221,-1.68013 0.29105,-0.15366 1.95792,-0.35536 3.70417,-0.44822 1.74625,-0.0928 3.68102,-0.232 4.29948,-0.30921 l 1.12448,-0.14038 v 0.90986 c 0,1.07864 -0.34695,1.41927 -1.74051,1.70875 l -1.03762,0.21555 -0.0686,12.98741 -0.0686,12.9874 -1.25429,0.53783 c -2.70303,1.15902 -4.33066,1.00617 -5.81324,-0.54592 -0.44915,-0.4702 -3.38893,-4.89468 -6.53284,-9.83218 -3.14392,-4.93749 -5.74442,-9.00558 -5.77888,-9.04019 -0.0345,-0.0346 -0.0297,3.79533 0.0105,8.51098 l 0.0732,8.5739 0.72053,0.16209 c 2.92143,0.65721 3.07649,0.78369 2.30721,1.88199 -0.60755,0.8674 -1.73058,1.08778 -6.54762,1.28491 -4.03263,0.16502 -4.43177,0.14163 -4.43177,-0.25966 z m 12.17083,-39.31071 c 9.53162,-0.57951 17.77669,-1.05471 18.3224,-1.05599 0.5457,-0.001 0.99219,-0.1149 0.99219,-0.25247 0,-0.24992 -5.91905,-4.65173 -7.11449,-5.29082 -1.57121,-0.83999 -2.19297,-0.82739 -19.21156,0.38917 -9.31333,0.66576 -17.20122,1.32081 -17.52864,1.45566 -0.32742,0.13485 -0.59531,0.34432 -0.59531,0.46549 0,0.12116 1.25026,1.20107 2.77836,2.39979 2.52014,1.97693 4.03891,2.91289 4.76226,2.93481 0.14552,0.004 8.06318,-0.46613 17.59479,-1.04564 z"
       id="path828"
       inkscape:connector-curvature="0" />
  </g>
</svg>
