<?xml version="1.0" encoding="UTF-8" standalone="no"?>
<!-- Created with Inkscape (http://www.inkscape.org/) -->

<svg
   xmlns:dc="http://purl.org/dc/elements/1.1/"
   xmlns:cc="http://creativecommons.org/ns#"
   xmlns:rdf="http://www.w3.org/1999/02/22-rdf-syntax-ns#"
   xmlns:svg="http://www.w3.org/2000/svg"
   xmlns="http://www.w3.org/2000/svg"
   xmlns:sodipodi="http://sodipodi.sourceforge.net/DTD/sodipodi-0.dtd"
   xmlns:inkscape="http://www.inkscape.org/namespaces/inkscape"
   width="86.74369mm"
   height="70.528458mm"
   viewBox="0 0 86.74369 70.528458"
   version="1.1"
   id="svg8"
   sodipodi:docname="sticker-box-icon.svg"
   inkscape:version="0.92.4 (5da689c313, 2019-01-14)">
  <defs
     id="defs2">
    <inkscape:perspective
       sodipodi:type="inkscape:persp3d"
       inkscape:vp_x="0 : 148.49999 : 1"
       inkscape:vp_y="0 : 999.99995 : 0"
       inkscape:vp_z="210.00001 : 148.49999 : 1"
       inkscape:persp3d-origin="105.00001 : 98.999996 : 1"
       id="perspective831" />
    <radialGradient
       id="rect5418_1_"
       cx="365.9566"
       cy="1316.6276"
       r="354.33069"
       gradientTransform="matrix(-0.67671781,0,0,-0.77157061,132.80206,1170.9372)"
       gradientUnits="userSpaceOnUse">
      <stop
         offset="0"
         style="stop-color:#E42D40"
         id="stop835" />
      <stop
         offset="1"
         style="stop-color:#E42D40"
         id="stop837" />
    </radialGradient>
  </defs>
  <sodipodi:namedview
     id="base"
     pagecolor="#ffffff"
     bordercolor="#666666"
     borderopacity="1.0"
     inkscape:pageopacity="0.0"
     inkscape:pageshadow="2"
     inkscape:zoom="0.98994949"
     inkscape:cx="-206.20619"
     inkscape:cy="28.374164"
     inkscape:document-units="mm"
     inkscape:current-layer="layer1"
     showgrid="true"
     fit-margin-top="0"
     fit-margin-left="0"
     fit-margin-right="0"
     fit-margin-bottom="0"
     inkscape:window-width="1920"
     inkscape:window-height="1016"
     inkscape:window-x="1680"
     inkscape:window-y="27"
     inkscape:window-maximized="1" />
  <metadata
     id="metadata5">
    <rdf:RDF>
      <cc:Work
         rdf:about="">
        <dc:format>image/svg+xml</dc:format>
        <dc:type
           rdf:resource="http://purl.org/dc/dcmitype/StillImage" />
        <dc:title />
      </cc:Work>
    </rdf:RDF>
  </metadata>
  <g
     inkscape:label="Layer 1"
     inkscape:groupmode="layer"
     id="layer1"
     transform="translate(195.00411,62.859814)">
    <g
       id="g1068">
      <g
         style="fill:#e42d40;fill-opacity:1"
         transform="matrix(1.0065292,0,0,1.0065292,-197.35079,-64.372197)"
         id="Package-2-7"
         data-name="Package">
        <path
           style="fill:#e42d40;fill-opacity:1"
           sodipodi:nodetypes="ccccccccccccccccssccsssssscssccccccccc"
           inkscape:connector-curvature="0"
           d="m 87.866456,22.498816 -55.181,-20.9310004 c -0.227984,-0.086991 -0.480016,-0.086991 -0.708,0 L 2.9774563,12.567816 c -0.3887163,0.147133 -0.645898,0.51937 -0.646,0.935 v 36 c -1.153e-4,0.414257 0.2551995,0.785696 0.642,0.934 L 58.154456,71.507815 c 0.229594,0.08761 0.483406,0.08761 0.713,0 l 29,-11.039999 c 0.387981,-0.147329 0.64464,-0.518988 0.645,-0.934 v -36.1 c -1.02e-4,-0.41563 -0.257284,-0.787867 -0.646,-0.935 z m -55.535,-18.9270004 52.362,19.8620004 -26.181,9.930999 -34.134,-12.947999 c -25.8205909,-9.794486 1.50061,0.569181 -10.274,-3.897 l -7.9539997,-3.017 z m -17,15.5520004 5,1.9 z m 1.592,-1.535 4.635,1.758 z m -12.5919997,-2.637 c 0,0 5.9999447,2.276146 8.9999997,3.414 2.999945,1.137812 6.000055,2.275188 9,3.413 3.000055,1.137854 35.181,13.344999 35.181,13.344999 v 33.994 L 4.3314563,48.815816 Z M 59.512456,69.122815 v -34 l 27,-10.239999 v 33.962 z"
           id="path4274-0" />
        <path
           style="fill:#e42d40;fill-opacity:1"
           sodipodi:nodetypes="cccccc"
           inkscape:connector-curvature="0"
           d="m 68.272535,61.378611 -6.014,2.289 c -1.039129,0.394144 -0.756368,1.935391 0.355,1.935 0.121719,1.17e-4 0.242412,-0.02226 0.356,-0.066 l 6.014,-2.289 c 1.277589,-0.459648 0.549063,-2.374719 -0.711,-1.869 z"
           id="path4276-9" />
        <path
           style="fill:#e42d40;fill-opacity:1"
           sodipodi:nodetypes="cccccc"
           inkscape:connector-curvature="0"
           d="m 74.266535,59.096611 -2.013,0.766 c -1.039129,0.394144 -0.756368,1.935391 0.355,1.935 0.121719,1.17e-4 0.242412,-0.02226 0.356,-0.066 l 2.013,-0.766 c 1.277589,-0.459648 0.549063,-2.374719 -0.711,-1.869 z"
           id="path4278-3" />
        <path
           style="fill:#e42d40;fill-opacity:1"
           sodipodi:nodetypes="cccccc"
           inkscape:connector-curvature="0"
           d="m 68.272535,57.378611 -6.014,2.289 c -1.039129,0.394144 -0.756368,1.935391 0.355,1.935 0.121719,1.17e-4 0.242412,-0.02226 0.356,-0.066 l 6.014,-2.289 c 1.277589,-0.459648 0.549063,-2.374719 -0.711,-1.869 z"
           id="path4280-6" />
        <path
           style="fill:#e42d40;fill-opacity:1"
           sodipodi:nodetypes="cccccc"
           inkscape:connector-curvature="0"
           d="m 74.266535,55.096611 -2.013,0.766 c -1.039129,0.394144 -0.756368,1.935391 0.355,1.935 0.121719,1.17e-4 0.242412,-0.02226 0.356,-0.066 l 2.013,-0.766 c 1.277589,-0.459648 0.549063,-2.374719 -0.711,-1.869 z"
           id="path4282-0" />
        <path
           style="fill:#e42d40;fill-opacity:1"
           sodipodi:nodetypes="cccccc"
           inkscape:connector-curvature="0"
           d="m 68.272535,53.378611 -6.014,2.289 c -1.039129,0.394144 -0.756368,1.935391 0.355,1.935 0.121719,1.17e-4 0.242412,-0.02226 0.356,-0.066 l 6.014,-2.289 c 1.277589,-0.459648 0.549063,-2.374719 -0.711,-1.869 z"
           id="path4284-6" />
        <path
           style="fill:#e42d40;fill-opacity:1"
           sodipodi:nodetypes="cccccc"
           inkscape:connector-curvature="0"
           d="m 74.266535,51.096611 -2.013,0.766 c -1.039129,0.394144 -0.756368,1.935391 0.355,1.935 0.121719,1.17e-4 0.242412,-0.02226 0.356,-0.066 l 2.013,-0.766 c 1.277589,-0.459648 0.549063,-2.374719 -0.711,-1.869 z"
           id="path4286-2" />
      </g>
      <g
         id="g1048"
         transform="matrix(0.66053472,0,0,-0.66053472,-329.36668,633.61764)"
         style="stroke:#e42d40;stroke-width:1.89240623;stroke-linejoin:round;stroke-miterlimit:4;stroke-dasharray:none;stroke-opacity:1">
        <path
           style="fill:none;stroke:#e42d40;stroke-width:4.72440958;stroke-linejoin:round;stroke-miterlimit:4;stroke-dasharray:none;stroke-opacity:1"
           d="m -288.32227,168.87305 v 56.32226 l 10.1543,3.89258 v -21.32031 c 0,-6.27393 2.64977,-9.14979 4.85938,-8.30664 1.98909,0.75899 2.56445,3.47886 2.56445,7.25586 v 25.21679 l 10.2168,3.91602 v -27.06445 c 0,-8.55849 -2.56538,-15.03895 -9.24414,-17.58399 -3.13867,-1.19603 -6.18753,-1.24643 -8.39649,0.41016 v -21.04297 z"
           transform="matrix(0.40055931,0,0,-0.40055931,356.87293,1073.2998)"
           id="path1046"
           inkscape:connector-curvature="0" />
      </g>
      <path
         inkscape:connector-curvature="0"
         id="path1050"
         d="m -172.50065,-36.211007 c 0,0 12.52764,4.751706 12.52764,4.751706 1.71695,0.651214 3.10006,2.911054 3.10006,5.06644 0,0 0,15.772796 0,15.772796 0,2.155411 -1.38311,3.359377 -3.10006,2.699874 0,0 -12.52764,-4.811996 -12.52764,-4.811996 -1.70696,-0.655658 -3.08029,-2.911754 -3.08029,-5.058926 0,0 0,-15.71248 0,-15.71248 0,-2.147173 1.37333,-3.354859 3.08029,-2.707414 0,0 0,0 0,0"
         style="fill:none;stroke:#e42d40;stroke-width:1.25;stroke-linejoin:round;stroke-miterlimit:4;stroke-dasharray:none;stroke-opacity:1" />
    </g>
  </g>
  <style
     id="style832"
     type="text/css">
	.st0{fill:url(#rect5418_1_);}
	.st1{fill:#FFFFFF;}
</style>
</svg>
