<?xml version="1.0" encoding="UTF-8" standalone="no"?>
<!-- Created with Inkscape (http://www.inkscape.org/) -->

<svg
   xmlns:dc="http://purl.org/dc/elements/1.1/"
   xmlns:cc="http://creativecommons.org/ns#"
   xmlns:rdf="http://www.w3.org/1999/02/22-rdf-syntax-ns#"
   xmlns:svg="http://www.w3.org/2000/svg"
   xmlns="http://www.w3.org/2000/svg"
   xmlns:sodipodi="http://sodipodi.sourceforge.net/DTD/sodipodi-0.dtd"
   xmlns:inkscape="http://www.inkscape.org/namespaces/inkscape"
   width="662.10522mm"
   height="387.28677mm"
   viewBox="0 0 662.10522 387.28677"
   version="1.1"
   id="svg8"
   inkscape:version="0.92.4 (5da689c313, 2019-01-14)"
   sodipodi:docname="stickermule-logo.svg">
  <defs
     id="defs2" />
  <sodipodi:namedview
     id="base"
     pagecolor="#ffffff"
     bordercolor="#666666"
     borderopacity="1.0"
     inkscape:pageopacity="0.0"
     inkscape:pageshadow="2"
     inkscape:zoom="0.24748737"
     inkscape:cx="266.28458"
     inkscape:cy="551.89951"
     inkscape:document-units="mm"
     inkscape:current-layer="layer1"
     showgrid="false"
     fit-margin-top="0"
     fit-margin-left="0"
     fit-margin-right="0"
     fit-margin-bottom="0"
     inkscape:window-width="1920"
     inkscape:window-height="1016"
     inkscape:window-x="1680"
     inkscape:window-y="27"
     inkscape:window-maximized="1" />
  <metadata
     id="metadata5">
    <rdf:RDF>
      <cc:Work
         rdf:about="">
        <dc:format>image/svg+xml</dc:format>
        <dc:type
           rdf:resource="http://purl.org/dc/dcmitype/StillImage" />
        <dc:title />
      </cc:Work>
    </rdf:RDF>
  </metadata>
  <g
     inkscape:label="Layer 1"
     inkscape:groupmode="layer"
     id="layer1"
     transform="translate(557.57643,42.538565)">
    <path
       style="fill:none;fill-opacity:1;stroke:#f52f42;stroke-width:18.89763832;stroke-miterlimit:4;stroke-dasharray:none;stroke-opacity:1"
       d="m 1668.918,5.0820312 c -3.3552,0 -4.9644,2.151908 -7.2618,9.7128908 -3.4916,11.491427 -18.1584,38.560518 -22.2929,41.142578 -1.4487,0.904517 -3.4374,0.843464 -8.7754,-0.269531 -16.3868,-3.416769 -49.1304,-2.73739 -66.5859,1.380859 -17.7052,4.177134 -36.3555,12.718803 -65.4903,29.998047 -16.963,10.060384 -21.7144,13.412545 -47.0097,33.152345 -7.425,5.79424 -23.1463,17.90402 -34.9356,26.91211 -27.0972,20.7047 -46.8273,37.15225 -64.2949,53.59765 -7.5512,7.1093 -16.2394,14.44847 -19.3086,16.3086 -3.0692,1.86009 -11.7419,5.49847 -19.2715,8.08594 -25.0011,8.59135 -30.9641,11.46811 -48.9824,23.625 -6.9894,4.71571 -16.5321,10.5451 -21.207,12.95507 -4.6751,2.40998 -10.5179,5.51091 -12.9844,6.89063 -2.4665,1.37968 -5.6165,2.51796 -7,2.5293 -1.3835,0.0121 -4.5407,0.95594 -7.0156,2.0957 -2.4751,1.13975 -9.1819,2.92825 -14.9024,3.97461 -31.6942,5.79723 -84.7987,4.78299 -114.0976,-2.17969 -4.6751,-1.11099 -12.1,-2.69708 -16.5,-3.52344 -4.4,-0.82635 -11.15,-2.56922 -15,-3.87304 -20.5433,-6.9569 -88.06368,-21.29306 -132.00005,-28.02735 -13.92075,-2.13369 -51.01022,-3.02789 -66.38867,-1.59961 -31.407,2.91693 -55.31996,11.53864 -76.61133,27.6211 -32.82077,24.79124 -56.02409,49.89223 -66.69922,72.15429 -9.35569,19.51049 -12.95075,41.45387 -10.9414,66.76563 1.22717,15.45849 5.62366,47.28496 9.74414,70.53711 2.17863,12.29412 2.70506,19.23347 3.41992,45.0332 1.33194,48.06954 3.90428,82.04635 9.46094,125 1.31629,10.17502 2.94468,22.77499 3.61914,28 0.67446,5.22501 1.65707,10.06251 2.18359,10.75 0.52657,0.6875 2.16505,1.25 3.64258,1.25 1.47753,0 3.50192,0.59583 4.49805,1.32422 1.65377,1.20926 1.70933,1.92786 0.63867,8.27539 -0.6449,3.8233 -2.26498,8.73997 -3.59961,10.92578 -5.01967,8.221 -5.81132,10.82457 -6.23633,20.47461 -0.34314,7.79097 0.0335,11.29899 2.09375,19.5 1.38168,5.50001 3.26084,13.82499 4.17578,18.5 0.91495,4.67501 2.71477,12.77499 4,18 6.34912,25.81153 10.06344,66.80223 9.15235,101 -0.88502,33.21876 1.01029,46.92001 7.87304,56.91406 4.44186,6.46851 10.41678,10.68761 18.58789,13.1211 6.32599,1.88394 7.19126,2.45248 8.50782,5.60351 0.80617,1.92923 1.21384,4.30617 0.90429,5.28125 -0.30946,0.97508 -0.62073,4.90792 -0.6914,8.73828 -0.16502,8.93621 1.37431,11.33625 10.00195,15.58399 6.44357,3.17246 7.01955,3.26713 21.64258,3.5918 21.87322,0.48582 37.31099,-3.23764 39.50976,-9.5293 2.5835,-7.39253 3.04755,-7.75145 11.04688,-8.5332 14.09148,-1.37715 23.25697,-4.49538 26.39844,-8.98047 2.58478,-3.69033 1.95075,-10.54146 -1.55469,-16.79102 -1.69674,-3.02498 -5.79215,-10.45 -9.09961,-16.5 -7.17078,-13.1167 -9.22064,-15.46784 -17.93555,-20.57617 -8.20365,-4.80866 -13.54445,-10.7475 -18.15234,-20.18555 -14.57828,-29.85997 -25.14873,-97.24147 -20.74414,-132.23437 2.8766,-22.85352 12.19949,-47.40857 42.52344,-112.00391 6.45486,-13.75 16.2427,-34.89999 21.75,-47 14.04695,-30.8623 16.01852,-34.5457 20.93164,-39.07422 13.19323,-12.16036 36.65191,-15.05416 49.36718,-6.08984 2.46807,1.74002 9.77392,7.26453 16.23438,12.27539 41.24434,31.98962 77.37014,45.38573 139.74614,51.82226 39.5807,4.08428 93.4794,2.35218 138.6972,-4.45898 6.9834,-1.05192 18.8425,-2.42508 26.3555,-3.05078 17.8853,-1.48955 17.0645,-2.27685 15.3672,14.71484 -1.1158,11.17066 -1.3701,36.33242 -0.7598,75.36133 0.182,11.6346 -1.3672,21.6598 -5.1777,33.5 -3.049,9.47335 -3.2,10.65829 -2.8614,22.5 0.1966,6.875 0.3309,22.85 0.2969,35.5 -0.071,27.2126 -1.4208,38.12103 -8.0078,64.70899 -9.4843,38.28257 -12.235,54.71042 -10.5117,62.79101 1.808,8.47763 5.2442,20.37721 6.6934,23.17969 2.1411,4.1404 5.6375,5.97563 14.2187,7.46484 4.8761,0.84624 8.1467,1.95783 8.9395,3.03711 1.6623,2.2636 1.576,8.95229 -0.25,19.31836 -3.7475,21.27477 -0.4875,29.55797 13,33.02537 v 0 c 4.4554,1.1472 45.4028,1.1332 51.4609,-0.016 7.9967,-1.5165 10.2989,-3.0058 12.8262,-8.29683 2.4203,-5.0674 4.9817,-6.71094 10.4609,-6.71094 4.1162,0 11.4567,-3.61802 13.4219,-6.61719 3.1119,-4.74946 0.8189,-14.14773 -5.711,-23.41211 -0.9809,-1.39188 -3.3511,-6.31195 -5.2675,-10.93359 -4.5396,-10.94714 -7.2401,-14.16374 -15.5625,-18.53711 -15.6784,-8.23876 -16.6627,-11.4497 -16.5508,-54 0.084,-31.82132 1.7085,-51.77019 5.3105,-65.17383 10.4742,-38.97558 19.118,-71.74643 20,-75.82617 0.5945,-2.75002 2.45,-10.175 4.1231,-16.5 1.6732,-6.325 5.7494,-24.77502 9.0586,-41 7.018,-34.40972 9.746,-45.90966 14.9414,-63 2.0899,-6.875 4.9623,-16.81681 6.3828,-22.09375 3.474,-12.90459 11.0674,-34.90994 14.1347,-40.96289 9.2956,-18.34405 24.61,-41.11613 54.3008,-80.73828 13.1736,-17.5801 33.9744,-46.08014 46.2227,-63.33399 52.5536,-74.03115 71.4937,-99.66084 76.4375,-103.43164 5.1497,-3.92787 8.6858,-3.44142 22.8691,3.14649 6.6771,3.10144 14.3907,6.52407 17.1407,7.60547 19.5343,7.68174 28.0057,12.79899 40.4316,24.42187 14.8487,13.88905 20.44,23.56504 22.1504,38.32617 0.6836,5.90026 1.5413,8.43515 4.1406,12.25391 7.9008,11.60738 21.5537,15.94534 33.4004,10.61133 3.3509,-1.50871 7.085,-2.24423 11.9355,-2.35156 4.9069,-0.10867 7.8991,-0.70653 9.8106,-1.95899 3.1286,-2.04994 18.6784,-25.19637 22.5019,-33.49414 2.1088,-4.57633 2.5228,-6.92752 2.4688,-14 -0.077,-9.93796 -2.7303,-18.84189 -9.832,-32.98242 -6.3038,-12.5514 -27.7343,-67.27771 -29.9317,-76.43555 -0.385,-1.60486 -3.1994,-8.35483 -6.2539,-15 -8.0538,-17.52098 -9.3822,-21.37052 -18.1875,-52.71875 -8.7064,-30.99632 -11.3416,-38.75183 -16.8086,-49.45508 -4.3104,-8.43878 -4.2091,-9.25327 2.4414,-19.49609 6.0207,-9.27239 19.7915,-34.804518 29.1836,-54.111328 8.1841,-16.823508 9.1593,-21.67301 5.0313,-25.015624 -4.981,-4.033399 -12.7527,-0.652829 -20.6465,8.980468 -7.9737,9.730696 -21.428,22.036782 -28.1035,25.705078 -3.7032,2.034898 -8.42,4.674419 -10.4824,5.865235 l -3.75,2.164062 -3.7188,-2 c -2.0455,-1.099993 -4.7455,-3.527659 -6,-5.396484 -2.1725,-3.236069 -2.2812,-4.290945 -2.2812,-22.115235 0,-25.852535 -1.6409,-32.9882808 -7.584,-32.9882808 z M 412.50195,1079.082 v 27.5 27.5 h 34.5 34.5 v -27.5 -27.5 h -34.5 z m 330,2 v 183 183 h 34 34 l 0.043,-40.25 0.043,-40.25 13.64258,-15.2929 c 9.3394,-10.4702 13.8787,-14.886 14.39453,-14 0.41443,0.7118 15.1161,25.5929 32.66992,55.2929 l 31.91602,54 41.64453,0.2618 c 22.90473,0.1435 41.64648,-0.029 41.64648,-0.3829 0,-0.354 -22.99321,-36.3974 -51.0957,-80.0957 l -51.0957,-79.4511 1.94922,-2.1661 c 1.07251,-1.1913 21.43005,-24.216 45.23828,-51.166 23.80826,-26.95 44.43239,-50.2375 45.83203,-51.75 l 2.54492,-2.75 H 938.83008 897.7832 l -43.39062,53.4844 -43.39063,53.4844 -0.25586,-102.4844 -0.2539,-102.4844 h -33.9961 z m -473,26 v 39.5 39.5 h -14.5 -14.5 v 26 26 h 14.46289 14.46485 l 0.28515,74.75 0.28711,74.75 2.83985,8.5 c 4.27306,12.7839 8.97301,20.486 18.07226,29.6192 11.79617,11.8401 26.70048,18.6718 44.4375,20.3691 v 0 c 4.20677,0.4026 16.76097,0.794 27.89844,0.8711 l 20.25,0.1406 v -29 -29 l -15.75,-0.024 c -13.21614,-0.018 -16.4133,-0.3221 -19.86719,-1.8906 -5.08921,-2.3111 -8.94565,-7.2177 -10.30273,-13.1074 -0.65239,-2.8313 -1.04152,-28.6774 -1.05664,-70.2305 l -0.0215,-65.75 h 23.5 23.5 v -26 -26 h -23.5 -23.5 v -39.5 -39.5 h -33.5 z m -145.5625,69 c -19.90446,0 -31.914291,1.5822 -45.337888,5.9688 -41.321045,13.5031 -64.047665,44.4216 -61.765624,84.0312 1.655659,28.7373 13.454336,48.3346 35.666015,59.2403 14.966816,7.3486 28.304134,10.0225 68.908207,13.8144 23.89281,2.2313 30.38029,3.795 36.24804,8.7324 6.61452,5.5657 8.97316,18.1182 4.90235,26.0977 -5.51936,10.8189 -18.62622,16.629 -40.0586,17.7559 -27.125099,1.4263 -53.363689,-5.9965 -69.535153,-19.67 -3.233462,-2.734 -6.156692,-4.9707 -6.496094,-4.9707 -1.034268,0 -42.9687499,42.7618 -42.9687499,43.8164 0,1.5569 10.6813539,10.9096 18.4296879,16.1368 20.031722,13.5136 40.109764,19.7275 72.570312,22.4628 9.321747,0.7857 42.867637,-0.3896 51.999997,-1.8222 28.02649,-4.3963 52.89525,-16.8224 66.37305,-33.1621 13.73288,-16.649 19.35899,-36.2142 17.44141,-60.6504 -0.92039,-11.7293 -3.03407,-19.6679 -7.86329,-29.5215 -9.76338,-19.9214 -29.15372,-33.1553 -56.65624,-38.6719 -4.28784,-0.8601 -20.641,-2.8913 -36.3418,-4.5137 -31.851819,-3.2909 -37.696062,-4.7376 -42.851564,-10.6093 -8.31258,-9.4676 -5.544623,-25.4222 5.640625,-32.5157 7.836889,-4.97 14.188459,-6.3409 29.257809,-6.3144 23.09689,0.041 39.85485,4.1725 53.44532,13.1777 l 6.94726,4.6035 20.30274,-20.9589 c 11.16669,-11.5265 20.30254,-21.2052 20.30273,-21.5098 6.8e-4,-0.9646 -13.24191,-10.6136 -19.84766,-14.4609 -18.49731,-10.7731 -45.77313,-16.4864 -78.71289,-16.4864 z m 507.44141,0 c -22.85889,0.01 -40.48109,3.7537 -57.37891,12.1993 -32.61785,16.3026 -52.4139,45.5353 -60.1289,88.7968 -1.47905,8.2935 -1.8711,15.4384 -1.8711,34 0,24.947 0.8544,33.4671 5.09571,50.7657 11.9712,48.8256 44.10082,78.5984 93.66211,86.791 10.29191,1.7013 35.91286,1.1401 47.35156,-1.0371 20.87671,-3.9735 40.36605,-13.8787 55.24609,-28.0782 l 6.64453,-6.3398 -22.66797,-22.7148 -22.66796,-22.7149 -6.56446,6.0156 c -8.06347,7.3887 -16.4192,11.9556 -25.33008,13.8438 -18.16947,3.8502 -33.10021,-0.2534 -45.35937,-12.4668 -7.67395,-7.6453 -11.76153,-15.3839 -15.14844,-28.6797 -2.06842,-8.1203 -2.25856,-11.079 -2.21094,-34.3848 0.0472,-23.1825 0.25434,-26.2271 2.27344,-33.5 7.77407,-28.003 23.87224,-41.6041 49.26367,-41.623 14.90623,-0.011 25.1046,4.2145 37.74024,15.6348 l 5.32812,4.8144 L 697.08008,1235 c 12.3318,-12.3227 22.42187,-22.7279 22.42187,-23.123 0,-1.1605 -9.7218,-9.9236 -16.47461,-14.8497 -19.89165,-14.5106 -41.9321,-20.9566 -71.64648,-20.9453 z m 464.82424,0.022 c -12.5762,-0.089 -26.565,1.1184 -34.8731,3.291 -19.9149,5.2079 -34.7822,13.5384 -48.414,27.127 -29.82745,29.7328 -42.46289,78.4087 -35.30862,136.0176 4.151,33.4255 15.79629,59.8297 33.93552,76.9414 17.3925,16.4072 37.1948,25.2753 64.9571,29.0879 17.9535,2.4655 41.7122,1.4702 60.2832,-2.5254 21.6449,-4.657 44.0976,-17.3931 60.7168,-34.4414 l 4.5,-4.6172 -20.5,-19.8281 -20.5,-19.8282 -4,3.6602 c -11.9429,10.9244 -22.7837,16.828 -35.8516,19.5273 -10.0595,2.0778 -28.3329,2.1434 -37.002,0.1328 -23.2402,-5.3898 -38.9327,-24.2709 -41.2949,-49.6875 l -0.6387,-6.8828 h 83.7637 83.7656 l -0.5175,-24.75 c -0.5698,-27.2962 -1.8818,-37.5992 -6.8457,-53.75 -13.6601,-44.4452 -45.9816,-72.4668 -90.5684,-78.5195 -4.4661,-0.6063 -9.891,-0.9147 -15.6074,-0.9551 z m 275.9824,0.082 c -13.7646,-0.023 -22.3162,1.5689 -33.6797,5.9511 -9.5507,3.6832 -22.2658,11.4887 -27.7558,17.0391 l -4.25,4.2969 v -12.1973 -12.1973 h -33 -33 v 134 134 h 33.4472 33.4492 l 0.3379,-86.25 c 0.3133,-80.2835 0.4615,-86.6304 2.1602,-91.75 5.2908,-15.9461 13.9351,-25.4534 27.3711,-30.1035 6.9518,-2.406 20.4284,-2.6626 27.5019,-0.5234 5.6047,1.6949 13.089,6.3039 17.1914,10.5859 1.6024,1.6725 3.3946,3.041 3.9825,3.041 0.5878,0 12.3019,-11.5402 26.0312,-25.6445 l 24.9629,-25.6426 -4.4687,-3.8945 c -8.5352,-7.4366 -18.341,-13.1833 -28.4668,-16.6836 -9.3351,-3.2269 -11.0362,-3.4878 -25.5723,-3.9219 -2.2026,-0.066 -4.2758,-0.1022 -6.2422,-0.1054 z m -958.68555,2.8925 v 134 134 h 34 34 v -134 -134 h -34 z m 678.76955,53.0801 c 4.937,-0.089 9.8543,0.2287 13.1152,0.9805 12.17,2.8057 24.306,12.4325 30.0723,23.8554 3.7056,7.3408 7.043,19.539 7.043,25.7442 v 4.3398 h -50.1172 -50.1172 l 0.7012,-6.75 c 0.825,-7.9515 4.6026,-19.9297 8.2675,-26.2168 5.7026,-9.7824 16.1066,-17.4541 27.8008,-20.5 3.3413,-0.8703 8.2974,-1.3645 13.2344,-1.4531 z"
       transform="matrix(0.26458333,0,0,0.26458333,-556.00299,-41.383186)"
       id="path867"
       inkscape:connector-curvature="0" />
    <path
       style="fill:#f52f42;fill-opacity:1;stroke-width:0.26458332"
       d="m -41.123527,342.00979 c -10.65527,-1.6605 -17.42799,-8.29524 -19.6415,-19.2414 -0.35327,-1.74704 -0.43008,-5.72608 -0.52342,-27.11676 l -0.10941,-25.06927 h 9.01269 9.01269 l 0.005,22.29115 c 0.005,24.18171 0.0175,24.4124 1.46491,27.37118 0.92861,1.89799 2.71844,3.6594 4.6436,4.56986 5.87484,2.77836 12.99313,0.68675 15.578031,-4.57737 1.58504,-3.22792 1.58255,-3.18466 1.58758,-27.49596 l 0.005,-22.15886 h 8.86354 8.8635395 v 35.45417 35.45418 h -8.7312495 -8.73124 v -3.06734 -3.06734 l -1.25678,1.0488 c -2.992331,2.49722 -6.578361,4.29096 -10.449581,5.2269 -2.05187,0.49609 -7.46604,0.70945 -9.5926,0.37806 z"
       id="path859"
       inkscape:connector-curvature="0" />
    <path
       style="fill:#f52f42;fill-opacity:1;stroke-width:0.99999994"
       d="m 2379,1176.2773 c -8.5767,-0.043 -16.8558,0.3501 -22.0527,1.2344 -48.7435,8.2942 -81.1162,43.055 -91.6973,98.4629 -1.9085,9.9944 -2.2173,15.0121 -2.2324,36.1074 -0.017,26.0545 0.7919,34.2762 5.1054,51.8653 7.2519,29.5711 22.166,52.2161 43.9239,66.6933 13.7461,9.1464 30.8858,15.1326 51.3125,17.9199 v 0 c 22.6625,3.0918 52.3039,0.7648 71.6387,-5.6269 15.388,-5.0869 31.8469,-15.2557 46.3066,-28.6055 l 7.3067,-6.7461 -20.4121,-20.3457 -20.4121,-20.3457 -6.3946,5.7481 c -16.3002,14.6482 -29.5704,19.5 -53.3242,19.5 -13.6616,-6e-4 -20.5021,-1.4239 -30.5312,-6.3496 -15.9262,-7.8223 -27.9725,-27.7922 -28.0254,-46.4571 l -0.016,-5.25 h 83.5 83.5 v -14.25 c -0.01,-29.5759 -2.9206,-51.8274 -9.1015,-69.4375 -13.4253,-38.2508 -40.9659,-63.0762 -79.7676,-71.9023 -6.0838,-1.3839 -17.6018,-2.1599 -28.6289,-2.2149 z m 0.041,55.8301 c 28.0462,-0.085 46.5374,18.0244 50.043,49.0098 l 0.6758,5.9648 h -50.2735 -50.2734 l 0.582,-7.25 c 1.5321,-19.0927 11.8769,-35.6126 26.9121,-42.9746 7.3305,-3.5894 12.6528,-4.7197 22.334,-4.75 z"
       transform="matrix(0.26458333,0,0,0.26458333,-556.00299,-41.383186)"
       id="path857"
       inkscape:connector-curvature="0" />
    <path
       style="fill:#f52f42;fill-opacity:1;stroke-width:0.26458332"
       d="m -171.6954,306.03653 v -35.45417 h 8.73125 8.73125 v 3.16008 3.16011 l 0.85989,-0.80037 c 2.6179,-2.43663 6.30685,-4.46365 10.1481,-5.57625 1.85753,-0.53801 2.63101,-0.60267 6.98368,-0.58383 4.51294,0.0196 5.06489,0.0751 7.07506,0.71289 3.8545,1.22285 6.26279,2.66227 8.9861,5.37086 l 2.43511,2.42197 0.60759,-0.64831 c 1.24026,-1.32339 4.2072,-3.58026 6.19858,-4.71509 4.01302,-2.28692 8.25101,-3.29581 13.844513,-3.29581 7.49761,0 12.64209,1.69294 17.38522,5.72109 2.97675,2.52801 6.14344,7.82439 7.22185,12.07878 0.96661,3.81321 1.06889,6.74606 1.06889,30.64694 v 23.25529 h -8.99583 -8.99583 l -0.004,-22.42344 c -0.005,-23.83704 -0.0282,-24.33112 -1.2845,-27.1711 -0.64752,-1.46381 -2.67676,-3.67226 -4.1882,-4.55801 -2.56595,-1.50376 -7.041123,-1.90256 -9.979473,-0.88937 -4.39431,1.51527 -6.85398,4.60195 -7.56074,9.48804 -0.14742,1.01928 -0.25757,11.01812 -0.26058,23.65961 l -0.005,21.89427 h -8.86354 -8.86354 l -0.009,-22.02657 c -0.0101,-23.74771 -0.054,-24.61681 -1.39859,-27.55366 -0.78401,-1.71252 -2.50658,-3.65993 -4.00092,-4.52316 -3.46038,-1.99895 -9.25539,-1.97347 -12.54477,0.0552 -1.3971,0.86161 -3.01072,2.62001 -3.76735,4.10538 -1.57533,3.09253 -1.55429,2.72285 -1.55855,27.38711 l -0.004,22.55573 h -8.99584 -8.99583 z"
       id="path845"
       inkscape:connector-curvature="0" />
    <path
       style="fill:#f52f42;fill-opacity:1;stroke-width:0.26458332"
       d="m 26.477513,341.22175 c -9.37268,-0.92077 -15.93625,-7.09131 -17.4444195,-16.39977 -0.18611,-1.14851 -0.27933,-14.7495 -0.28065,-40.94428 l -0.002,-39.22448 h 8.9958395 8.99583 l 0.006,38.8276 c 0.006,37.11034 0.0273,38.87442 0.49178,39.88595 1.09776,2.39056 2.20826,2.77812 7.96057,2.77812 h 4.50641 v 7.67292 7.67292 l -5.6224,-0.037 c -3.09231,-0.0204 -6.51536,-0.12472 -7.60677,-0.23196 z"
       id="path843"
       inkscape:connector-curvature="0" />
  </g>
</svg>
